<svg width="60" height="60" xmlns="http://www.w3.org/2000/svg" fill="none">
 <g>
  <title>Layer 1</title>
  <path id="svg_1" d="m20.50546,71.38045l0.56913,0l0.17587,-0.54067l0.17587,0.54067l0.56913,0l-0.46044,0.33415l0.17588,0.54067l-0.46044,-0.33416l-0.46044,0.33416l0.17588,-0.54067l-0.46044,-0.33415z" stroke="#000" fill="#fff"/>
  <path id="svg_8" d="m15.32952,21.66838c-0.14954,0 -0.2264,-0.19243 -0.2264,-0.42319c0,-0.19239 0.03843,-0.37917 0.14954,-0.37917c0.07686,0 0.19257,0.18679 0.231,0.37917c0.07686,0.28011 0,0.42319 -0.15413,0.42319zm25.56238,10.97995c0.34212,0 0.41898,0.04935 0.2264,0.37913c-0.11111,0.23076 -0.34211,0.42315 -0.45323,0.42315c-0.1157,0 -0.231,-0.19239 -0.231,-0.42315c0,-0.23642 0.15415,-0.37913 0.45782,-0.37913zm-23.88565,-13.43095c-0.34211,-0.09337 -0.38055,-0.56618 0,-0.70894c0.19256,-0.04396 0.30369,0.09336 0.30369,0.37917c0,0.23639 -0.11113,0.37377 -0.30369,0.32976zm-4.26451,14.93655c0.45782,-0.13739 0.45782,-0.23614 0.30369,-0.56054c-0.1153,-0.23614 -0.15373,-0.52193 -0.07686,-0.61531c0.03843,-0.14301 0.231,0 0.34211,0.28014c0.15413,0.37917 0.26942,0.42882 0.57311,0.19239c0.1884,-0.14274 0.34211,-0.23636 0.34211,-0.09336c0,0.09336 0.11571,0 0.26525,-0.19239c0.23101,-0.28014 0.26944,-0.89571 0.03844,-1.2255c-0.18798,-0.28014 -1.14205,-0.18676 -1.40729,0.14274c-0.15373,0.23644 -0.26944,0.18705 -0.41898,-0.23609c-0.231,-0.70359 -0.231,-0.80237 0.30367,-0.84633c0.45782,0 0.45782,0 0.07686,-0.28579c-0.19215,-0.13739 -0.38054,-0.42315 -0.38054,-0.60994c0,-0.47278 0.5305,-0.75293 0.7615,-0.42313c0.07686,0.13736 0.22642,0.28014 0.38055,0.28014c0.30369,0 1.75358,-1.59904 1.75358,-1.92884c0,-0.14299 0.14996,-0.23635 0.30369,-0.14299c0.18839,0.04963 0.53051,-0.09336 0.87722,-0.32979c0.49165,-0.37914 0.49165,-0.42315 0.2264,-1.03846c-0.18798,-0.42315 -0.41898,-0.56618 -0.95366,-0.56618c-0.60736,0 -0.7615,0.0934 -0.94947,0.65958c-0.07728,0.37913 -0.30827,0.65929 -0.45782,0.65929c-0.26525,0 -0.34211,-0.4229 -0.07686,-0.65929c0.11529,-0.0934 0.19215,-0.42315 0.19215,-0.75294c0,-0.51656 -0.07686,-0.60994 -0.57311,-0.47253c-0.49625,0.09336 -0.49625,0.04935 -0.38055,-0.65961c0.07686,-0.42313 0.18798,-0.80228 0.26526,-0.84628c0.07686,-0.04935 0.15372,-0.47253 0.15372,-0.89568c0,-0.84637 0.22682,-0.98911 0.64622,-0.37917c0.19214,0.32978 0.30786,0.37917 0.38054,0.09336c0.07686,-0.18676 0.34629,-0.23076 0.76568,-0.1374c0.56894,0.18679 0.60736,0.1374 0.5305,-0.42315c-0.03843,-0.32975 -0.07727,-0.70892 -0.1157,-0.80228c0,-0.14278 -0.18798,-0.32979 -0.4148,-0.47257c-0.45782,-0.23635 -0.57311,-0.80228 -0.15413,-0.80228c0.11571,0 0.22681,-0.0934 0.22681,-0.28044c0,-0.14278 0.23101,-0.23614 0.53468,-0.19242c0.41939,0.04963 0.6458,-0.13733 1.21891,-1.12639c0.41939,-0.70897 0.72307,-1.08811 0.76151,-0.89572c0.03843,0.23614 0.231,0.3735 0.41938,0.3735c0.30369,0 0.34212,-0.13736 0.23101,-0.75267c-0.03884,-0.42318 -0.23101,-0.93968 -0.34671,-1.17612c-0.34212,-0.52214 -0.34212,-1.13207 0,-0.94536c0.26942,0.18705 1.10778,-0.32949 1.10778,-0.65927c0,-0.14301 0.11153,-0.23639 0.26525,-0.23639c0.15415,0 0.22682,0.28577 0.22682,0.65957c0,0.47253 0.07686,0.65932 0.26944,0.52191c0.14954,-0.09876 0.26526,-0.37917 0.26526,-0.56592c0,-0.56621 1.2189,-1.55529 1.52257,-1.2749c0.11572,0.09343 0.231,0 0.26987,-0.32975c0.1111,-0.65957 0.7995,-1.17612 1.10318,-0.84633c0.15415,0.13736 0.3037,0.0934 0.34254,-0.04935c0.07685,-0.18704 0.38054,-0.32979 0.72265,-0.37383c0.34211,-0.04935 0.79993,-0.23639 0.99251,-0.42878c0.72265,-0.60994 1.44573,-0.56593 1.74941,0.09368c0.19257,0.4725 0.26942,0.4725 0.26942,0.14271c0,-0.42318 0.14997,-0.47253 1.06519,-0.32975c1.44991,0.18704 1.67673,0.18704 2.21142,-0.0494c0.34211,-0.13739 0.45781,-0.09339 0.45781,0.28574c0,0.23644 0.11113,0.42319 0.26526,0.42319c0.11529,0 0.2264,-0.1374 0.2264,-0.28041c0,-0.37913 0.61197,-0.56592 1.14664,-0.37913c0.4148,0.18704 0.45323,0.23635 0.34211,1.50585c-0.03843,0.75832 0,1.27487 0.07269,1.27487c0.07685,0 0.15413,-0.32979 0.15413,-0.80232c0,-0.79695 0.41898,-1.12647 0.57311,-0.47255c0.03844,0.23615 0.14954,0.14275 0.2264,-0.23075c0.19258,-0.98936 0.61197,-0.47283 0.49625,0.60994c-0.11528,0.89568 -0.11528,0.89568 0.22683,0.56589c0.19256,-0.14275 0.3421,-0.5165 0.3421,-0.75267c0,-0.23641 0.11572,-0.5168 0.26945,-0.61558c0.30366,-0.18671 0.64621,0.52196 0.53467,1.03871c-0.03843,0.23618 -0.03843,0.42318 0.07268,0.42318c0.07728,0 0.15415,-0.13736 0.15415,-0.23639c0,-0.13739 0.18839,-0.18679 0.41938,-0.09336c0.49584,0.14275 0.56852,0.52188 0.14955,0.75264c-0.11111,0.09903 -0.22682,0.32979 -0.22682,0.52221c0,0.32979 0.07727,0.32979 0.49625,0c0.68423,-0.56592 0.9879,-0.52221 1.10362,0.09336c0.07685,0.32979 0.22681,0.4728 0.38054,0.32979c0.15413,-0.04938 0.49625,0.14301 0.76151,0.47253c0.231,0.2804 0.57311,0.51655 0.72725,0.51655c0.22682,0 0.22682,0.23642 0.14954,0.89596c-0.07685,0.70897 -0.07685,0.80232 0.15415,0.51658c0.30367,-0.4672 0.41898,-0.42322 0.53051,0.23609c0.03843,0.32979 0.30785,0.56618 0.61154,0.70894c0.34211,0.09368 0.53051,0.32978 0.53051,0.61019c0,0.28577 0.11528,0.61531 0.231,0.80235c0.30369,0.32975 0.2264,1.31883 -0.11572,1.6486c-0.11528,0.09878 -0.26524,0.0494 -0.30367,-0.09336c-0.07685,-0.14304 -0.34211,-0.14304 -0.83837,0c-0.79993,0.32949 -0.94947,0.42315 -0.7615,0.85167c0.11571,0.28014 1.44614,0.18679 2.17298,-0.14301c0.22682,-0.14277 0.30369,0 0.30369,0.65958c0,0.4725 -0.07686,0.84633 -0.19215,0.84633c-0.07728,0 -0.14996,0.14274 -0.14996,0.37913c0,0.56615 0.1884,0.5165 0.68464,-0.14278c0.26483,-0.37913 0.41896,-0.47278 0.60736,-0.23635c0.19215,0.23635 0.231,0.23635 0.231,-0.14278c0,-0.23104 -0.07728,-0.42315 -0.19256,-0.42315c-0.07269,0 -0.14997,-0.18704 -0.14997,-0.37383c0,-0.23636 0.11153,-0.42315 0.26525,-0.42315c0.11571,0 0.26944,0.09336 0.26944,0.23076c0,0.14307 0.14996,0.32978 0.34253,0.37917c0.26484,0.14304 0.34211,0.32979 0.30367,0.89571c-0.07727,1.08269 0.07688,1.41251 0.6458,1.22575c0.26944,-0.09368 0.41896,0 0.30369,0.18676c-0.03425,0.09336 0,0.32979 0.07686,0.4285c0.30827,0.28043 0.19256,0.93976 -0.14955,0.93976c-0.41938,0 -0.53468,0.23635 -0.30785,0.65954c0.15372,0.23639 0.26942,0.28014 0.41896,0.09339c0.34671,-0.47253 0.41939,-0.09339 0.45782,1.79169c0,0.94503 0.07686,1.698 0.15373,1.698c0.18839,0 0.11571,1.03871 -0.15373,1.46186c-0.14996,0.23614 -0.14996,0.46688 -0.03843,0.65927c0.26942,0.42319 0,1.64869 -0.34254,1.64869c-0.30366,0 -0.87679,0.89568 -0.87679,1.31886c0,0.51683 -0.49165,0 -0.60736,-0.56593c-0.11529,-0.51653 -0.11529,-0.51653 -0.19257,-0.14301c-0.07268,0.42879 0.34253,1.74765 0.68883,2.1214c0.22681,0.28582 -0.19257,0.75832 -0.49626,0.56593c-0.15415,-0.09336 -0.22682,-0.3735 -0.22682,-0.65929c0,-0.80228 -0.95366,-2.82475 -1.67673,-3.58304c-0.38471,-0.37383 -0.72684,-0.79697 -0.72684,-0.93971c0,-0.28579 -1.21932,-1.17612 -1.90354,-1.46189c-0.38097,-0.14301 -0.49626,-0.09337 -0.49626,0.28577c0,0.28014 -0.07268,0.3735 -0.22682,0.28014c-0.34211,-0.18679 -0.49625,0.23644 -0.19256,0.65958c0.41938,0.51653 0.34671,1.13207 -0.11111,0.89568c-0.30786,-0.14275 -0.3463,-0.0934 -0.231,0.70895c0.03843,0.46715 0.11571,1.08269 0.11571,1.36283c0,0.28579 0.07685,0.47257 0.15372,0.47257c0.11154,0 0.14996,-0.0934 0.07269,-0.23614c-0.03843,-0.14304 0.03886,-0.28041 0.19256,-0.28041c0.11572,0 0.22682,0.18701 0.22682,0.37377c0,0.19242 -0.14995,0.37913 -0.41938,0.32982c-0.2264,0 -0.41898,-0.1374 -0.41898,-0.23079c0,-0.42882 -1.02676,-3.34693 -1.33043,-3.77546c-0.34212,-0.4672 -0.1153,-0.60994 -2.81879,1.60463c-0.41896,0.32979 -0.87679,1.03871 -1.10778,1.55529c-0.1884,0.5165 -0.49207,1.03871 -0.6458,1.13207c-0.15413,0.0934 -0.72307,0.84633 -1.21933,1.64865c-2.13455,3.53339 -1.78785,3.95657 -1.63829,11.17237c0.64621,5.46783 0.64621,5.46783 0.64621,5.46783c-1.523,0 -1.523,0 -1.523,0c-1.25734,0 -1.25734,0 -1.25734,0c0.11529,-5.04497 0.11529,-5.04497 0.11529,-5.04497c0.07685,-0.42287 0.11571,-1.27482 0.15415,-1.7474c0.03843,-0.2804 -1.06937,-1.5059 -1.03093,-1.78601c0,-0.23639 1.14622,0.42319 1.14622,0.18676c0.18839,-3.44004 0,-6.1768 -0.49626,-7.6333c-0.11529,-0.89572 -1.06936,-3.77518 -1.2189,-3.77518c-0.03844,0 -0.30786,-0.2804 -0.57311,-0.61019c-0.45783,-0.61528 -0.6458,-0.65932 -3.19975,-0.84633c-2.74191,-0.19213 -2.74191,-0.19213 -2.74191,-0.19213c-0.64997,0.65932 -0.64997,0.65932 -0.64997,0.65932c-0.38054,0.42878 -0.7615,0.70894 -0.87262,0.70894c-0.231,0 -1.18507,0.98932 -1.59987,1.5552c-0.03843,0 -0.07685,-0.04931 -0.07685,-0.09336c-0.03844,0 -0.03844,0 -0.03844,-0.04938c-0.03843,-0.13736 -0.07727,-0.2804 -0.15413,-0.42315c0.231,-0.23639 0.41938,-0.3794 0.49625,-0.32975c0.11529,0.09336 0.22682,0 0.22682,-0.23644c0,-0.23614 -0.22682,-0.32978 -0.83418,-0.23614c-0.72726,0.14278 -0.91564,0.19213 -1.03093,0.75269c-0.1884,0.28577 -0.22682,0.70895 -0.11529,1.03874c-0.03886,0.42315 -0.03886,0.70892 0,0.70892c0.03843,0 0.07685,-0.09336 0.19215,-0.19239c0,0.0494 0.03843,0.09903 0.07727,0.14301c-0.38096,0.14275 -0.57353,0.56593 -0.53468,0.98908c-0.19256,0.19239 -0.38096,0.28577 -0.61194,0.42853c0,0 0,-0.04935 -0.03426,-0.04935c0.14996,-0.42315 0.22682,-0.89572 0.26525,-1.60465c0.07728,-0.79697 0.03843,-1.31886 -0.07685,-1.31886c-0.07686,0 -0.15413,0.19239 -0.15413,0.47249c0.03841,0.23644 -0.03426,0.47257 -0.18799,0.51658c-0.11571,0.04935 -0.19256,-0.044 -0.19256,-0.28014c0,-0.56618 -0.14955,-0.56618 -0.49208,-0.04963c-0.15372,0.19239 -0.4574,0.42318 -0.72265,0.52221c-0.34671,0.13736 -0.45782,0.04396 -0.61196,-0.47257c-0.11529,-0.42315 -0.19215,-0.89596 -0.11529,-1.08272c0.03843,-0.23639 0.03843,-0.42853 -0.11111,-0.42853c-0.41939,0 -0.11571,-0.75297 0.38054,-0.89598zm3.2766,-10.83694c-0.231,-0.04935 -0.41939,-0.18676 -0.49625,-0.37914c-0.03844,-0.2804 -0.07686,-0.2804 -0.07686,0c0,0.19239 -0.15413,0.32979 -0.30369,0.37914c-0.26942,0 -0.26942,0.04938 0.03844,0.23644c0.18797,0.09336 0.38054,0.23609 0.41896,0.23609c0.03425,0 0.22682,-0.14274 0.41939,-0.23609c0.34211,-0.23644 0.34211,-0.23644 0,-0.23644zm30.20742,7.58929c0.07269,0.0934 0.14955,-0.04963 0.14955,-0.28577c0,-0.18701 -0.07686,-0.3738 -0.14955,-0.3738c-0.1157,0 -0.19256,0.09339 -0.19256,0.23076c0,0.14304 0.07686,0.33542 0.19256,0.42881zm-0.26942,0.42318c-0.03843,-0.14304 -0.22682,-0.32978 -0.38096,-0.32978c-0.11111,0 -0.18798,0.18674 -0.11111,0.32978c0.03425,0.14275 0.18839,0.23615 0.34211,0.23615c0.14996,0 0.18839,-0.0934 0.14996,-0.23615zm-0.34211,2.12115c0.11529,0 0.26942,-0.04935 0.26942,-0.09336c0,-0.09903 -0.15413,-0.19239 -0.26942,-0.28579c-0.14996,-0.09339 -0.26526,-0.044 -0.26526,0.0934c0,0.14301 0.1153,0.28574 0.26526,0.28574zm0.30369,-4.47872c0.15372,-0.09343 0.23099,-0.23642 0.19215,-0.37383c-0.1153,-0.33513 -0.7611,-0.33513 -0.7611,0c0,0.37383 0.22642,0.51658 0.56895,0.37383zm-2.09194,-3.53372c-0.19257,0.14304 -0.30786,0.42318 -0.26945,0.56618c0.19257,0.37354 0.41941,0.28014 0.61155,-0.32979c0.1884,-0.56618 0.11153,-0.65954 -0.3421,-0.23639zm-0.72726,7.25952c0.99249,1.26946 1.03093,1.31886 1.03093,0.89571c0,-0.23614 -0.07686,-0.42853 -0.19257,-0.42853c-0.1111,0 -0.30367,-0.23644 -0.41896,-0.51653c-0.11113,-0.28044 -0.34211,-0.56623 -0.53051,-0.56623c-0.34629,0 -0.34629,0.04965 0.11111,0.61558zm-0.79953,-2.22021c0.23059,0 0.34212,-0.09336 0.19217,-0.13738c-0.11529,-0.09339 -0.30369,-0.09339 -0.41898,0c-0.11572,0.04402 0,0.13738 0.22681,0.13738zm-1.10361,-6.40756c0.11529,0.14278 0.4574,0.32954 0.76108,0.42319c0.5347,0.14274 0.57312,0.14274 0.26944,-0.23639c-0.34629,-0.4672 -1.29576,-0.60994 -1.03051,-0.1868zm-2.32295,-7.82001c-0.11529,0.13736 -0.15372,0.42315 -0.11529,0.60989c0.07686,0.37917 0.30369,0.0494 0.30369,-0.51653c0,-0.28579 -0.03844,-0.32979 -0.1884,-0.09336zm1.14205,10.17763c0.30369,0.23611 0.41939,0.23611 0.57354,-0.09365c0.30367,-0.51656 0.1111,-0.75267 -0.45783,-0.42313c-0.45782,0.23101 -0.45782,0.23101 -0.11571,0.51679zm-0.76108,-2.35762c0.57311,-0.51649 0.57311,-0.51649 0.11529,-0.51649c-0.30786,0 -0.53468,0.18671 -0.64997,0.51649c-0.07269,0.32954 -0.14996,0.51658 -0.11153,0.51658c0,0 0.30369,-0.28043 0.64622,-0.51658zm-0.83837,7.63869c0.26483,0.51658 0.72266,0.51658 0.57311,-0.04938c-0.03843,-0.18701 -0.07727,-0.42315 -0.07727,-0.4728c0,-0.044 -0.15373,-0.044 -0.34211,0.04965c-0.30786,0.09339 -0.30786,0.23614 -0.15373,0.47253zm-1.18089,-1.93442c0.30367,0.51656 0.45782,0.56592 0.79993,0.18679c0.22682,-0.23614 0.22682,-0.23614 0,-0.28014c-0.11529,0 -0.41898,-0.04965 -0.68423,-0.14304c-0.38096,-0.18676 -0.38096,-0.18676 -0.11571,0.23639zm-0.03843,-5.13834c0.19256,0 0.41938,-0.75293 0.30369,-0.98906c-0.14955,-0.23639 -0.45741,0.14274 -0.45741,0.56592c0,0.23641 0.07686,0.42315 0.15373,0.42315zm-1.86471,3.2039c-0.231,0.19239 -0.19256,0.23644 0.11113,0.23644c0.19256,0 0.41896,-0.09368 0.49625,-0.23644c0.11528,-0.37375 -0.26526,-0.37375 -0.60737,0zm0.03844,4.149c0.03425,0.04965 0.14954,-0.04938 0.26525,-0.28014c0.11528,-0.19239 0.45741,-0.42878 0.72265,-0.52218c0.34211,-0.14278 0.49626,-0.37353 0.49626,-0.70895c0,-0.79665 -0.53468,-0.56055 -1.10363,0.47281c-0.23099,0.52193 -0.41896,0.94511 -0.38053,1.03846zm-0.41938,-2.17056c0.3421,-0.5165 0.3421,-0.61019 0.07267,-0.75294c-0.30367,-0.18679 -0.53008,0.23644 -0.53008,0.98908c-0.03884,0.56618 -0.03884,0.56618 0.45741,-0.23614zm-0.61155,-5.56147c0.03843,0.37913 0.11529,0.32978 0.3421,-0.3738c0.26945,-0.75269 0.26945,-0.85172 0.03844,-0.85172c-0.14954,0 -0.30369,0.14278 -0.34211,0.37919c-0.07686,0.18674 -0.07686,0.61557 -0.03843,0.84633zm-0.1884,-3.86323c0,0.19213 0.07268,0.65932 0.14996,0.98908c0.11529,0.65957 0.11529,0.65957 0.231,0.09339c0.14954,-0.56589 0,-1.41221 -0.231,-1.41221c-0.11153,0 -0.14996,0.14271 -0.14996,0.32975zm-2.66882,1.555c-0.18839,0.32979 -0.18839,0.65958 -0.03884,1.64865c0.07728,0.70894 0.26985,1.41789 0.38096,1.55529c0.19257,0.23639 0.231,0 0.26942,-1.46164c0,-1.78605 -0.19256,-2.35219 -0.61154,-1.7423zm0.34211,4.99558c0.03844,0.0934 0.11529,-0.09339 0.07686,-0.37378c0,-0.28579 -0.03843,-0.32979 -0.11529,-0.14275c-0.03426,0.18676 -0.03426,0.42315 0.03843,0.51653zm1.37304,-4.4294c-0.03843,0.0934 -0.03843,0.75297 0.07686,1.46164c0.11571,1.22575 0.14996,1.27511 0.1884,0.3794c0.03843,-1.46189 -0.03844,-2.17081 -0.26526,-1.84104zm-1.29618,13.29356c0.231,-0.56618 0.61155,-1.51129 0.8768,-2.07743c0.30367,-0.60998 0.49625,-1.41226 0.57311,-2.21458c0.11153,-1.26951 0.11153,-1.26951 0.11153,-1.26951c-0.45782,0.70357 -0.45782,0.70357 -0.45782,0.70357c-0.22682,0.37917 -0.38055,0.80232 -0.38055,0.94511c0,0.37377 -0.72307,2.73134 -0.94989,3.15452c-0.11529,0.23609 -0.30786,0.75832 -0.34211,1.13207c-0.19257,1.0825 0.14996,0.89571 0.56894,-0.37375zm-2.70349,4.85255c0.11571,0.93968 0.11571,0.93968 0.49626,-1.08273c0.22682,-1.08813 0.56894,-2.8301 0.79993,-3.91285c0.30367,-1.36825 0.41938,-2.50032 0.41938,-4.09958c0,-2.07722 -0.03884,-2.12122 -0.34252,-1.88479c-0.68841,0.60992 -1.06937,2.30792 -1.2231,5.60518c-0.07268,1.69833 -0.14996,3.39633 -0.22681,3.77013c-0.03844,0.37914 0,1.0881 0.07685,1.60465zm0.07728,-12.06271c0.14954,0.46718 0.30369,0.84633 0.30369,0.84633c0.03843,0 0.22639,-0.28579 0.38054,-0.65954c0.19256,-0.32952 0.49625,-0.70867 0.61155,-0.84607c0.45363,-0.42878 0.56892,-1.74764 0.18839,-2.64335c-0.30369,-0.80232 -1.14205,-1.6983 -1.29619,-1.41251c-0.07685,0.09339 -0.18797,0.98936 -0.26525,2.02782c-0.15372,1.55525 -0.15372,2.02803 0.07728,2.68732zm-0.231,-10.79316c0.07686,0.09365 0.15372,0.044 0.15372,-0.09873c0,-0.18704 -0.07685,-0.37383 -0.15372,-0.4672c-0.11571,-0.09902 -0.1884,-0.04938 -0.1884,0.1374c0,0.14275 0.07269,0.32979 0.1884,0.42853zm-12.34071,12.67257c0.5305,0.04963 0.5305,0.04963 0.5305,0.04963c0.53468,0 1.06937,-0.61019 1.06937,-1.13207c0,-0.32979 -0.03843,-0.32979 -1.59987,1.08244zm0.22682,-1.31887c0,0.14308 0.07686,0.28579 0.19257,0.28579c0.18798,0 0.72265,-0.84633 0.60736,-0.98906c-0.11571,-0.19239 -0.79993,0.42313 -0.79993,0.70328zm0.41938,-3.24786c0.57312,0.93994 0.83837,1.03332 1.14205,0.42313c0.30786,-0.56589 0.03844,-0.94506 -0.8772,-1.08247c-0.76109,-0.14304 -0.76109,-0.14304 -0.26484,0.65933zm-0.41938,-2.64311c0,0.09873 0.26942,0.32949 0.57311,0.52188c1.40731,0.89572 1.67673,0.89572 1.63829,0.04405c0,-0.51658 -0.57311,-1.64868 -0.79993,-1.64868c-0.26942,0 -1.41147,0.89571 -1.41147,1.08275zm2.05769,6.69333c0.41898,0 0.4574,-0.14278 0.11529,-0.37354c-0.15413,-0.04963 -0.30369,0 -0.34211,0.1374c-0.07728,0.14271 0.03843,0.23614 0.22682,0.23614zm0.30369,-11.07335c-0.26526,-0.23642 -0.60779,-0.32978 -0.76151,-0.23642c-0.26525,0.18704 -0.22682,0.23642 0.15372,0.37913c0.1884,0.09368 0.57354,0.18705 0.76151,0.23106c0.22682,0 0.22682,-0.09365 -0.15372,-0.37377zm-0.03425,1.698c0.22639,0 0.26525,-0.04938 0.11111,-0.19213c-0.11111,-0.04397 -0.26526,-0.04397 -0.34212,0.0494c-0.03843,0.09336 0.07686,0.18679 0.23101,0.14274zm0.22639,1.08276c-0.53467,0 -0.53467,0.04396 -0.22639,0.42313c0.38054,0.42315 0.49165,0.4725 0.6458,0.18676c0.26524,-0.37354 0.07685,-0.60989 -0.41941,-0.60989zm0.76152,-5.32512c-0.15415,-0.23639 -0.19257,0.18679 -0.1153,0.70332c0.03843,0.32979 0.19215,0.61554 0.26944,0.61554c0.14954,0 0.03843,-1.03871 -0.15413,-1.31886zm1.2189,6.22076c-0.07685,0.04405 0.11571,0.32979 0.34253,0.56621c0.231,0.23614 0.41896,0.32951 0.41896,0.18676c0,-0.32975 -0.64579,-0.94531 -0.7615,-0.75297zm-0.95366,0.32979c-0.34211,0.32982 -0.14954,1.1761 0.3463,1.31889c0.26525,0.09337 0.68464,0.47255 0.94989,0.8463c0.231,0.37917 0.41896,0.52221 0.41896,0.37917c0,-0.47253 -1.52258,-2.73675 -1.71516,-2.54436zm1.56144,3.91289c-0.22681,-0.7586 -0.49207,-1.13214 -0.98833,-1.36854c-0.38054,-0.18676 -0.7615,-0.28574 -0.87679,-0.23611c-0.11571,0.04935 0.34211,0.65929 0.99251,1.36822c1.2189,1.2255 1.2189,1.2255 0.87261,0.23642zm2.02302,-7.25955c-0.07686,0 -0.15415,0.18679 -0.15415,0.37354c0,0.23639 0.07728,0.37917 0.15415,0.37917c0.11111,0 0.1884,-0.14278 0.1884,-0.37917c0,-0.18676 -0.07728,-0.37354 -0.1884,-0.37354zm-0.34629,3.86323c0,0.32975 0.64997,0.09339 0.91522,-0.32979c0.38055,-0.70892 0.34211,-0.89571 -0.15413,-0.89571c-0.34211,0 -0.76109,0.6596 -0.76109,1.2255zm1.1078,-10.17767c-0.11571,0.60994 -0.19257,1.12647 -0.15413,1.17612c0.1157,0.18679 0.41939,-1.22547 0.41939,-1.79166c0,-0.23614 -0.11572,0.04965 -0.26526,0.61554zm1.98042,9.51809c-0.19257,0 -0.34212,0.09368 -0.34212,0.2804c0,0.14278 0.11111,0.23644 0.2264,0.23644c0.15413,0 0.30369,-0.09365 0.34253,-0.23644c0.07686,-0.18671 -0.03884,-0.2804 -0.22681,-0.2804zm-0.45783,8.85877c0.22682,0.85197 0.56894,1.64865 0.76151,1.84104c0.19257,0.14278 0.57311,0.80235 0.79993,1.46189c0.22682,0.65932 0.45782,1.17587 0.49626,1.17587c0.18797,0 -0.19257,-4.33576 -0.45782,-5.65487c-0.23101,-1.13182 -0.3037,-2.17056 -0.26526,-3.81921c0.03425,-1.22547 0,-2.30822 -0.07685,-2.40159c-0.03844,-0.09339 -0.30369,-0.09339 -0.53468,0c-0.41939,0.18676 -0.45782,0.32979 -0.45782,1.36851c0,0.79669 -0.07688,1.2255 -0.26526,1.41221c-0.53467,0.42319 -0.49625,2.82477 0,4.61616zm-1.10361,-6.31414c-0.07686,-0.70894 -0.15372,-0.80232 -0.57311,-0.80232c-0.49626,0 -0.49626,0.04938 -0.45782,1.03846c0,0.61019 0.07727,1.31911 0.1157,1.64863c0.03844,0.32979 0.1884,0.65954 0.34212,0.70894c0.30367,0.23642 0.64579,-1.41221 0.57311,-2.59371zm-0.57311,4.75889c-0.34212,-0.56593 -0.57311,-1.17587 -0.60737,-1.31886c0,-0.18676 -0.19256,-0.65929 -0.41898,-1.08247c-0.231,-0.42315 -0.49625,-0.94533 -0.61196,-1.13212c-0.38054,-0.65954 -0.30369,-0.09336 0.11571,1.36825c0.26525,0.98932 0.72266,1.88504 1.25734,2.63797c0.98832,1.27485 1.10362,1.03851 0.26526,-0.47278zm-0.60737,2.31357c0.4148,0 0.38055,-0.04935 -0.19256,-0.80228c-0.38055,-0.47257 -0.6458,-0.98911 -0.6458,-1.22552c0,-0.18674 -0.49626,-0.8517 -1.06936,-1.46164c-0.56895,-0.61552 -1.10363,-1.22546 -1.18048,-1.41247c-0.07728,-0.23614 -0.11571,-0.23614 -0.11571,0.044c0,0.28579 -0.18798,0.32975 -0.79993,0.18676c-0.41898,-0.0934 -0.76109,-0.0934 -0.76109,-0.04375c0,0.09339 0.15372,0.65932 0.30786,1.22546c0.26526,0.93973 0.38054,1.13214 1.21891,1.50566c0.53051,0.23639 1.36886,0.80231 1.90354,1.22546c0.49626,0.42882 1.10362,0.75832 1.33462,0.75832zm-5.94582,1.59925c0.15413,0 0.38096,-0.09336 0.53467,-0.23635c0.26526,-0.32954 0.03886,-0.32954 -0.4574,0c-0.22682,0.14299 -0.26525,0.187 -0.07727,0.23635zm-0.41898,-1.1761c0.38055,-0.1921 1.59987,-0.37914 2.70766,-0.37914c2.09153,-0.044 2.51091,-0.18671 1.67254,-0.47253c-0.26524,-0.09336 -0.87261,-0.32979 -1.36886,-0.56593c-0.8768,-0.42315 -2.66924,-0.2804 -2.85721,0.19218c-0.03884,0.09361 -0.231,0.14299 -0.41938,0.09361c-0.38055,-0.14301 -0.76151,0.23617 -0.8768,0.98911c-0.15413,0.60989 0.11529,0.65954 1.14205,0.14271zm-3.0456,1.08275c0.07686,0.37917 0.45782,0.42315 0.76151,0.09336c0.18797,-0.18674 0.18797,-0.2801 0,-0.56589c-0.15413,-0.28044 -0.26525,-0.28044 -0.49625,-0.044c-0.15413,0.1374 -0.26526,0.37354 -0.26526,0.51653zm-1.21891,3.2973c0.14955,0 0.22642,0.14278 0.14955,0.42318c-0.03426,0.19239 -0.14955,0.37914 -0.22682,0.37914c-0.11529,0 -0.18798,-0.18676 -0.18798,-0.37914c0,-0.23076 0.11111,-0.42318 0.26525,-0.42318z" stroke="null" fill="#000000"/>
  <path id="svg_9" d="m76.75832,14.0253c-0.00643,0 -0.00973,-0.00646 -0.00973,-0.0142c0,-0.00646 0.00165,-0.01273 0.00643,-0.01273c0.0033,0 0.00828,0.00627 0.00993,0.01273c0.0033,0.0094 0,0.0142 -0.00663,0.0142zm1.09897,0.36854c0.01471,0 0.01801,0.00166 0.00973,0.01273c-0.00478,0.00775 -0.01471,0.0142 -0.01949,0.0142c-0.00497,0 -0.00993,-0.00646 -0.00993,-0.0142c0,-0.00794 0.00663,-0.01273 0.01968,-0.01273zm-1.02688,-0.45081c-0.01471,-0.00313 -0.01636,-0.019 0,-0.0238c0.00828,-0.00148 0.01306,0.00313 0.01306,0.01273c0,0.00793 -0.00478,0.01255 -0.01306,0.01107zm-0.18334,0.50135c0.01968,-0.00461 0.01968,-0.00793 0.01306,-0.01881c-0.00496,-0.00793 -0.00661,-0.01752 -0.0033,-0.02065c0.00165,-0.0048 0.00993,0 0.01471,0.0094c0.00663,0.01273 0.01158,0.01439 0.02464,0.00646c0.0081,-0.00479 0.01471,-0.00793 0.01471,-0.00313c0,0.00313 0.00497,0 0.0114,-0.00646c0.00993,-0.0094 0.01158,-0.03006 0.00165,-0.04113c-0.00808,-0.0094 -0.0491,-0.00627 -0.0605,0.00479c-0.00661,0.00794 -0.01158,0.00628 -0.01801,-0.00792c-0.00993,-0.02362 -0.00993,-0.02693 0.01306,-0.02841c0.01968,0 0.01968,0 0.0033,-0.00959c-0.00826,-0.00461 -0.01636,-0.0142 -0.01636,-0.02047c0,-0.01587 0.02281,-0.02527 0.03274,-0.0142c0.0033,0.00461 0.00973,0.0094 0.01636,0.0094c0.01306,0 0.07539,-0.05367 0.07539,-0.06474c0,-0.0048 0.00645,-0.00793 0.01306,-0.0048c0.0081,0.00167 0.02281,-0.00313 0.03771,-0.01107c0.02114,-0.01273 0.02114,-0.0142 0.00973,-0.03486c-0.00808,-0.0142 -0.01801,-0.019 -0.041,-0.019c-0.02611,0 -0.03274,0.00314 -0.04082,0.02214c-0.00332,0.01273 -0.01325,0.02213 -0.01968,0.02213c-0.0114,0 -0.01471,-0.01419 -0.0033,-0.02213c0.00496,-0.00314 0.00826,-0.0142 0.00826,-0.02527c0,-0.01734 -0.0033,-0.02047 -0.02464,-0.01586c-0.02133,0.00313 -0.02133,0.00166 -0.01636,-0.02214c0.0033,-0.0142 0.00808,-0.02693 0.0114,-0.02841c0.0033,-0.00166 0.00661,-0.01586 0.00661,-0.03006c0,-0.02841 0.00975,-0.0332 0.02778,-0.01273c0.00826,0.01107 0.01324,0.01273 0.01636,0.00313c0.0033,-0.00627 0.01489,-0.00775 0.03292,-0.00461c0.02446,0.00627 0.02611,0.00461 0.02281,-0.0142c-0.00165,-0.01107 -0.00332,-0.0238 -0.00497,-0.02693c0,-0.00479 -0.00808,-0.01107 -0.01783,-0.01586c-0.01968,-0.00793 -0.02464,-0.02693 -0.00663,-0.02693c0.00497,0 0.00975,-0.00314 0.00975,-0.00941c0,-0.00479 0.00993,-0.00793 0.02299,-0.00646c0.01803,0.00167 0.02776,-0.00461 0.0524,-0.03781c0.01803,-0.0238 0.03109,-0.03652 0.03274,-0.03007c0.00165,0.00793 0.00993,0.01254 0.01803,0.01254c0.01306,0 0.01471,-0.00461 0.00993,-0.02526c-0.00167,-0.0142 -0.00993,-0.03154 -0.01491,-0.03948c-0.01471,-0.01753 -0.01471,-0.038 0,-0.03173c0.01158,0.00628 0.04763,-0.01106 0.04763,-0.02213c0,-0.0048 0.0048,-0.00793 0.0114,-0.00793c0.00663,0 0.00975,0.00959 0.00975,0.02214c0,0.01586 0.0033,0.02213 0.01158,0.01752c0.00643,-0.00332 0.0114,-0.01273 0.0114,-0.019c0,-0.01901 0.0524,-0.0522 0.06546,-0.04279c0.00498,0.00314 0.00993,0 0.0116,-0.01107c0.00478,-0.02214 0.03437,-0.03948 0.04743,-0.02841c0.00663,0.00461 0.01306,0.00314 0.01473,-0.00166c0.0033,-0.00628 0.01636,-0.01107 0.03107,-0.01255c0.01471,-0.00166 0.03439,-0.00793 0.04267,-0.01439c0.03107,-0.02047 0.06215,-0.019 0.07521,0.00314c0.00828,0.01586 0.01158,0.01586 0.01158,0.00479c0,-0.0142 0.00645,-0.01586 0.04579,-0.01107c0.06233,0.00628 0.07209,0.00628 0.09507,-0.00166c0.01471,-0.00461 0.01968,-0.00313 0.01968,0.00959c0,0.00794 0.00478,0.0142 0.0114,0.0142c0.00496,0 0.00973,-0.00461 0.00973,-0.00941c0,-0.01273 0.02631,-0.019 0.0493,-0.01273c0.01783,0.00628 0.01949,0.00793 0.01471,0.05054c-0.00165,0.02545 0,0.04279 0.00313,0.04279c0.0033,0 0.00663,-0.01107 0.00663,-0.02693c0,-0.02675 0.01801,-0.03781 0.02464,-0.01586c0.00165,0.00793 0.00643,0.00479 0.00973,-0.00775c0.00828,-0.03321 0.02631,-0.01587 0.02133,0.02047c-0.00496,0.03006 -0.00496,0.03006 0.00975,0.01899c0.00828,-0.00479 0.01471,-0.01734 0.01471,-0.02526c0,-0.00794 0.00498,-0.01735 0.01158,-0.02066c0.01306,-0.00627 0.02778,0.01752 0.02299,0.03486c-0.00165,0.00793 -0.00165,0.0142 0.00312,0.0142c0.00332,0 0.00663,-0.00461 0.00663,-0.00793c0,-0.00461 0.0081,-0.00627 0.01803,-0.00313c0.02132,0.00479 0.02444,0.01752 0.00643,0.02526c-0.00478,0.00332 -0.00975,0.01107 -0.00975,0.01753c0,0.01107 0.00332,0.01107 0.02133,0c0.02942,-0.019 0.04247,-0.01753 0.04745,0.00313c0.0033,0.01107 0.00975,0.01587 0.01636,0.01107c0.00663,-0.00166 0.02133,0.0048 0.03274,0.01586c0.00993,0.00941 0.02464,0.01734 0.03127,0.01734c0.00975,0 0.00975,0.00794 0.00643,0.03007c-0.0033,0.0238 -0.0033,0.02693 0.00663,0.01734c0.01306,-0.01568 0.01801,-0.01421 0.02281,0.00792c0.00165,0.01107 0.01324,0.019 0.02629,0.0238c0.01471,0.00314 0.02281,0.01107 0.02281,0.02048c0,0.00959 0.00496,0.02065 0.00993,0.02693c0.01306,0.01107 0.00973,0.04427 -0.00498,0.05534c-0.00496,0.00332 -0.0114,0.00166 -0.01306,-0.00313c-0.0033,-0.0048 -0.01471,-0.0048 -0.03604,0c-0.03439,0.01106 -0.04082,0.0142 -0.03274,0.02859c0.00497,0.0094 0.06217,0.00627 0.09342,-0.0048c0.00975,-0.00479 0.01306,0 0.01306,0.02214c0,0.01586 -0.0033,0.02841 -0.00826,0.02841c-0.00332,0 -0.00645,0.00479 -0.00645,0.01273c0,0.019 0.0081,0.01734 0.02943,-0.00479c0.01139,-0.01273 0.01801,-0.01587 0.02611,-0.00793c0.00826,0.00793 0.00993,0.00793 0.00993,-0.00479c0,-0.00776 -0.00332,-0.0142 -0.00828,-0.0142c-0.00313,0 -0.00645,-0.00628 -0.00645,-0.01255c0,-0.00793 0.0048,-0.0142 0.0114,-0.0142c0.00497,0 0.01158,0.00313 0.01158,0.00775c0,0.0048 0.00645,0.01107 0.01473,0.01273c0.01139,0.0048 0.01471,0.01107 0.01306,0.03006c-0.00332,0.03634 0.00331,0.04741 0.02776,0.04114c0.01158,-0.00314 0.01801,0 0.01306,0.00627c-0.00147,0.00313 0,0.01107 0.0033,0.01438c0.01325,0.00941 0.00828,0.03154 -0.00643,0.03154c-0.01803,0 -0.02299,0.00793 -0.01324,0.02214c0.00661,0.00793 0.01158,0.0094 0.01801,0.00313c0.01491,-0.01586 0.01803,-0.00313 0.01968,0.06014c0,0.03172 0.0033,0.05699 0.00661,0.05699c0.0081,0 0.00497,0.03486 -0.00661,0.04907c-0.00645,0.00793 -0.00645,0.01567 -0.00165,0.02213c0.01158,0.0142 0,0.05534 -0.01473,0.05534c-0.01306,0 -0.03769,0.03006 -0.03769,0.04427c0,0.01735 -0.02114,0 -0.02611,-0.019c-0.00496,-0.01734 -0.00496,-0.01734 -0.00828,-0.0048c-0.00312,0.01439 0.01473,0.05866 0.02961,0.07121c0.00975,0.00959 -0.00828,0.02545 -0.02134,0.019c-0.00663,-0.00313 -0.00975,-0.01254 -0.00975,-0.02213c0,-0.02693 -0.041,-0.09481 -0.07209,-0.12027c-0.01654,-0.01255 -0.03125,-0.02675 -0.03125,-0.03154c0,-0.00959 -0.05242,-0.03948 -0.08184,-0.04907c-0.01638,-0.0048 -0.02134,-0.00313 -0.02134,0.00959c0,0.0094 -0.00312,0.01254 -0.00975,0.0094c-0.01471,-0.00627 -0.02133,0.00794 -0.00828,0.02214c0.01803,0.01734 0.01491,0.038 -0.00478,0.03006c-0.01324,-0.00479 -0.01489,-0.00314 -0.00993,0.0238c0.00165,0.01568 0.00497,0.03634 0.00497,0.04574c0,0.00959 0.0033,0.01586 0.00661,0.01586c0.0048,0 0.00645,-0.00314 0.00313,-0.00793c-0.00165,-0.0048 0.00167,-0.00941 0.00828,-0.00941c0.00498,0 0.00975,0.00628 0.00975,0.01255c0,0.00646 -0.00645,0.01273 -0.01803,0.01107c-0.00973,0 -0.01801,-0.00461 -0.01801,-0.00775c0,-0.01439 -0.04414,-0.11234 -0.0572,-0.12672c-0.01471,-0.01568 -0.00496,-0.02047 -0.12118,0.05386c-0.01801,0.01107 -0.03769,0.03486 -0.04763,0.0522c-0.0081,0.01734 -0.02116,0.03486 -0.02776,0.038c-0.00663,0.00314 -0.03109,0.02841 -0.05242,0.05534c-0.09177,0.1186 -0.07686,0.1328 -0.07043,0.375c0.02778,0.18353 0.02778,0.18353 0.02778,0.18353c-0.06548,0 -0.06548,0 -0.06548,0c-0.05406,0 -0.05406,0 -0.05406,0c0.00496,-0.16933 0.00496,-0.16933 0.00496,-0.16933c0.0033,-0.01419 0.00497,-0.04279 0.00663,-0.05865c0.00165,-0.00941 -0.04597,-0.05055 -0.04432,-0.05995c0,-0.00793 0.04928,0.0142 0.04928,0.00627c0.0081,-0.11547 0,-0.20732 -0.02134,-0.25621c-0.00496,-0.03007 -0.04597,-0.12671 -0.0524,-0.12671c-0.00165,0 -0.01324,-0.00941 -0.02464,-0.02048c-0.01968,-0.02065 -0.02776,-0.02213 -0.13756,-0.02841c-0.11788,-0.00645 -0.11788,-0.00645 -0.11788,-0.00645c-0.02794,0.02213 -0.02794,0.02213 -0.02794,0.02213c-0.01636,0.01439 -0.03274,0.0238 -0.03752,0.0238c-0.00993,0 -0.05095,0.03321 -0.06878,0.0522c-0.00165,0 -0.0033,-0.00166 -0.0033,-0.00313c-0.00165,0 -0.00165,0 -0.00165,-0.00166c-0.00165,-0.00461 -0.00332,-0.00941 -0.00663,-0.0142c0.00993,-0.00793 0.01803,-0.01273 0.02133,-0.01107c0.00496,0.00313 0.00975,0 0.00975,-0.00794c0,-0.00793 -0.00975,-0.01107 -0.03586,-0.00793c-0.03127,0.00479 -0.03937,0.00645 -0.04432,0.02526c-0.0081,0.00959 -0.00975,0.0238 -0.00496,0.03487c-0.00167,0.0142 -0.00167,0.0238 0,0.0238c0.00165,0 0.0033,-0.00313 0.00826,-0.00646c0,0.00166 0.00165,0.00332 0.00332,0.0048c-0.01638,0.00479 -0.02466,0.019 -0.02299,0.0332c-0.00828,0.00646 -0.01638,0.00959 -0.02631,0.01438c0,0 0,-0.00166 -0.00147,-0.00166c0.00645,-0.0142 0.00975,-0.03007 0.0114,-0.05386c0.00332,-0.02675 0.00165,-0.04427 -0.0033,-0.04427c-0.0033,0 -0.00663,0.00646 -0.00663,0.01586c0.00165,0.00794 -0.00147,0.01586 -0.00808,0.01734c-0.00497,0.00166 -0.00828,-0.00148 -0.00828,-0.0094c0,-0.019 -0.00643,-0.019 -0.02116,-0.00167c-0.00661,0.00646 -0.01966,0.0142 -0.03107,0.01753c-0.01491,0.00461 -0.01968,0.00148 -0.02631,-0.01586c-0.00496,-0.0142 -0.00826,-0.03007 -0.00496,-0.03634c0.00165,-0.00793 0.00165,-0.01438 -0.00478,-0.01438c-0.01803,0 -0.00497,-0.02527 0.01636,-0.03007zm0.14087,-0.36374c-0.00993,-0.00166 -0.01803,-0.00627 -0.02133,-0.01273c-0.00165,-0.00941 -0.0033,-0.00941 -0.0033,0c0,0.00646 -0.00663,0.01107 -0.01306,0.01273c-0.01158,0 -0.01158,0.00166 0.00165,0.00794c0.00808,0.00313 0.01636,0.00792 0.01801,0.00792c0.00147,0 0.00975,-0.00479 0.01803,-0.00792c0.01471,-0.00794 0.01471,-0.00794 0,-0.00794zm1.29867,0.25474c0.00313,0.00314 0.00643,-0.00167 0.00643,-0.00959c0,-0.00628 -0.0033,-0.01255 -0.00643,-0.01255c-0.00497,0 -0.00828,0.00313 -0.00828,0.00775c0,0.0048 0.0033,0.01126 0.00828,0.01439zm-0.01158,0.0142c-0.00165,-0.0048 -0.00975,-0.01107 -0.01638,-0.01107c-0.00478,0 -0.00808,0.00627 -0.00478,0.01107c0.00147,0.00479 0.0081,0.00793 0.01471,0.00793c0.00645,0 0.0081,-0.00314 0.00645,-0.00793zm-0.01471,0.0712c0.00496,0 0.01158,-0.00166 0.01158,-0.00313c0,-0.00332 -0.00663,-0.00646 -0.01158,-0.00959c-0.00645,-0.00313 -0.0114,-0.00148 -0.0114,0.00314c0,0.0048 0.00496,0.00959 0.0114,0.00959zm0.01306,-0.15033c0.00661,-0.00314 0.00993,-0.00794 0.00826,-0.01255c-0.00496,-0.01125 -0.03272,-0.01125 -0.03272,0c0,0.01255 0.00973,0.01734 0.02446,0.01255zm-0.08994,-0.11861c-0.00828,0.0048 -0.01324,0.0142 -0.01158,0.019c0.00828,0.01254 0.01803,0.0094 0.02629,-0.01107c0.0081,-0.019 0.0048,-0.02214 -0.01471,-0.00793zm-0.03127,0.24367c0.04267,0.04261 0.04432,0.04427 0.04432,0.03006c0,-0.00793 -0.0033,-0.01438 -0.00828,-0.01438c-0.00478,0 -0.01306,-0.00794 -0.01801,-0.01734c-0.00478,-0.00941 -0.01471,-0.01901 -0.02281,-0.01901c-0.01489,0 -0.01489,0.00167 0.00478,0.02066zm-0.03437,-0.07452c0.00991,0 0.01471,-0.00313 0.00826,-0.00461c-0.00496,-0.00313 -0.01306,-0.00313 -0.01801,0c-0.00498,0.00148 0,0.00461 0.00975,0.00461zm-0.04745,-0.21507c0.00496,0.00479 0.01966,0.01106 0.03272,0.0142c0.02299,0.00479 0.02464,0.00479 0.01158,-0.00793c-0.01489,-0.01568 -0.05571,-0.02047 -0.0443,-0.00627zm-0.09987,-0.26248c-0.00496,0.00461 -0.00661,0.0142 -0.00496,0.02047c0.0033,0.01273 0.01306,0.00166 0.01306,-0.01734c0,-0.00959 -0.00165,-0.01107 -0.0081,-0.00313zm0.0491,0.34161c0.01306,0.00793 0.01803,0.00793 0.02466,-0.00314c0.01306,-0.01734 0.00478,-0.02526 -0.01968,-0.0142c-0.01968,0.00775 -0.01968,0.00775 -0.00497,0.01735zm-0.03272,-0.07913c0.02464,-0.01734 0.02464,-0.01734 0.00496,-0.01734c-0.01324,0 -0.02299,0.00627 -0.02794,0.01734c-0.00313,0.01106 -0.00645,0.01734 -0.0048,0.01734c0,0 0.01306,-0.00941 0.02778,-0.01734zm-0.03604,0.25639c0.01139,0.01734 0.03107,0.01734 0.02464,-0.00166c-0.00165,-0.00628 -0.00332,-0.0142 -0.00332,-0.01587c0,-0.00148 -0.00661,-0.00148 -0.01471,0.00167c-0.01324,0.00313 -0.01324,0.00793 -0.00661,0.01586zm-0.05077,-0.06493c0.01306,0.01734 0.01968,0.019 0.03439,0.00627c0.00975,-0.00793 0.00975,-0.00793 0,-0.0094c-0.00496,0 -0.01801,-0.00167 -0.02942,-0.0048c-0.01638,-0.00627 -0.01638,-0.00627 -0.00497,0.00793zm-0.00165,-0.17247c0.00828,0 0.01803,-0.02527 0.01306,-0.0332c-0.00643,-0.00793 -0.01967,0.00479 -0.01967,0.019c0,0.00794 0.0033,0.0142 0.00661,0.0142zm-0.08017,0.10754c-0.00993,0.00646 -0.00828,0.00794 0.00478,0.00794c0.00828,0 0.01801,-0.00314 0.02133,-0.00794c0.00496,-0.01255 -0.0114,-0.01255 -0.02611,0zm0.00165,0.13926c0.00147,0.00167 0.00643,-0.00166 0.0114,-0.0094c0.00496,-0.00646 0.01967,-0.01439 0.03107,-0.01753c0.01471,-0.00479 0.02134,-0.01254 0.02134,-0.0238c0,-0.02674 -0.02299,-0.01882 -0.04745,0.01587c-0.00993,0.01752 -0.01801,0.03172 -0.01636,0.03486zm-0.01803,-0.07286c0.01471,-0.01734 0.01471,-0.02048 0.00312,-0.02527c-0.01306,-0.00627 -0.02279,0.00794 -0.02279,0.0332c-0.00167,0.019 -0.00167,0.019 0.01967,-0.00793zm-0.02629,-0.18667c0.00165,0.01273 0.00496,0.01107 0.01471,-0.01255c0.01158,-0.02526 0.01158,-0.02859 0.00165,-0.02859c-0.00643,0 -0.01306,0.00479 -0.01471,0.01273c-0.0033,0.00627 -0.0033,0.02066 -0.00165,0.02841zm-0.0081,-0.12967c0,0.00645 0.00312,0.02213 0.00645,0.0332c0.00496,0.02214 0.00496,0.02214 0.00993,0.00313c0.00643,-0.01899 0,-0.0474 -0.00993,-0.0474c-0.0048,0 -0.00645,0.00479 -0.00645,0.01107zm-0.11474,0.05219c-0.0081,0.01107 -0.0081,0.02214 -0.00167,0.05534c0.00332,0.0238 0.0116,0.04759 0.01638,0.0522c0.00828,0.00793 0.00993,0 0.01158,-0.04906c0,-0.05995 -0.00828,-0.07895 -0.02629,-0.05848zm0.01471,0.16768c0.00165,0.00314 0.00496,-0.00313 0.0033,-0.01255c0,-0.00959 -0.00165,-0.01107 -0.00496,-0.00479c-0.00147,0.00627 -0.00147,0.0142 0.00165,0.01734zm0.05903,-0.14867c-0.00165,0.00314 -0.00165,0.02527 0.0033,0.04906c0.00497,0.04114 0.00645,0.0428 0.0081,0.01273c0.00165,-0.04907 -0.00165,-0.07286 -0.0114,-0.06179zm-0.05573,0.4462c0.00993,-0.019 0.02629,-0.05073 0.0377,-0.06973c0.01306,-0.02047 0.02133,-0.0474 0.02464,-0.07433c0.0048,-0.04261 0.0048,-0.04261 0.0048,-0.04261c-0.01968,0.02362 -0.01968,0.02362 -0.01968,0.02362c-0.00975,0.01273 -0.01636,0.02693 -0.01636,0.03172c0,0.01255 -0.03109,0.09168 -0.04084,0.10588c-0.00496,0.00792 -0.01324,0.02545 -0.01471,0.038c-0.00828,0.03633 0.00645,0.03006 0.02446,-0.01255zm-0.11623,0.16288c0.00497,0.03154 0.00497,0.03154 0.02134,-0.03634c0.00975,-0.03652 0.02446,-0.09499 0.03439,-0.13134c0.01306,-0.04593 0.01803,-0.08392 0.01803,-0.1376c0,-0.06972 -0.00167,-0.0712 -0.01473,-0.06326c-0.0296,0.02047 -0.04597,0.07747 -0.05258,0.18814c-0.00312,0.057 -0.00645,0.114 -0.00975,0.12654c-0.00165,0.01273 0,0.03652 0.0033,0.05386zm0.00332,-0.40489c0.00643,0.01568 0.01306,0.02841 0.01306,0.02841c0.00165,0 0.00973,-0.00959 0.01636,-0.02214c0.00828,-0.01106 0.02133,-0.02379 0.02629,-0.0284c0.0195,-0.01439 0.02446,-0.05866 0.0081,-0.08872c-0.01306,-0.02693 -0.0491,-0.057 -0.05573,-0.04741c-0.0033,0.00313 -0.00808,0.03321 -0.0114,0.06806c-0.00661,0.0522 -0.00661,0.06807 0.00332,0.0902zm-0.00993,-0.36227c0.0033,0.00314 0.00661,0.00148 0.00661,-0.00331c0,-0.00628 -0.0033,-0.01255 -0.00661,-0.01568c-0.00497,-0.00332 -0.0081,-0.00166 -0.0081,0.00461c0,0.00479 0.00313,0.01107 0.0081,0.01438zm-0.53055,0.42536c0.02281,0.00167 0.02281,0.00167 0.02281,0.00167c0.02299,0 0.04597,-0.02048 0.04597,-0.038c0,-0.01107 -0.00165,-0.01107 -0.06878,0.03633zm0.00975,-0.04427c0,0.0048 0.0033,0.00959 0.00828,0.00959c0.00808,0 0.03107,-0.02841 0.02611,-0.0332c-0.00497,-0.00646 -0.03439,0.0142 -0.03439,0.02361zm0.01803,-0.10901c0.02464,0.03155 0.03604,0.03468 0.0491,0.0142c0.01324,-0.01899 0.00165,-0.03172 -0.03771,-0.03633c-0.03272,-0.0048 -0.03272,-0.0048 -0.01139,0.02213zm-0.01803,-0.08872c0,0.00331 0.01158,0.01106 0.02464,0.01752c0.0605,0.03007 0.07209,0.03007 0.07043,0.00148c0,-0.01734 -0.02464,-0.05534 -0.03439,-0.05534c-0.01158,0 -0.06068,0.03006 -0.06068,0.03634zm0.08846,0.22466c0.01801,0 0.01966,-0.00479 0.00496,-0.01254c-0.00663,-0.00167 -0.01306,0 -0.01471,0.00461c-0.00332,0.00479 0.00165,0.00793 0.00975,0.00793zm0.01306,-0.37168c-0.0114,-0.00794 -0.02613,-0.01107 -0.03274,-0.00794c-0.0114,0.00628 -0.00975,0.00794 0.00661,0.01273c0.0081,0.00314 0.02466,0.00628 0.03274,0.00776c0.00975,0 0.00975,-0.00314 -0.00661,-0.01255zm-0.00147,0.05699c0.00973,0 0.0114,-0.00166 0.00478,-0.00645c-0.00478,-0.00148 -0.0114,-0.00148 -0.01471,0.00166c-0.00165,0.00313 0.0033,0.00627 0.00993,0.00479zm0.00973,0.03634c-0.02299,0 -0.02299,0.00148 -0.00973,0.0142c0.01636,0.0142 0.02114,0.01586 0.02776,0.00627c0.0114,-0.01254 0.0033,-0.02047 -0.01803,-0.02047zm0.03274,-0.17874c-0.00663,-0.00793 -0.00828,0.00627 -0.00496,0.02361c0.00165,0.01107 0.00826,0.02066 0.01158,0.02066c0.00643,0 0.00165,-0.03486 -0.00663,-0.04427zm0.0524,0.2088c-0.0033,0.00148 0.00497,0.01107 0.01473,0.01901c0.00993,0.00793 0.01801,0.01106 0.01801,0.00627c0,-0.01107 -0.02776,-0.03173 -0.03274,-0.02527zm-0.041,0.01107c-0.01471,0.01107 -0.00643,0.03948 0.01489,0.04427c0.0114,0.00313 0.02943,0.01586 0.04084,0.02841c0.00993,0.01273 0.01801,0.01753 0.01801,0.01273c0,-0.01586 -0.06546,-0.09186 -0.07374,-0.0854zm0.06713,0.13134c-0.00975,-0.02546 -0.02116,-0.038 -0.04249,-0.04594c-0.01636,-0.00627 -0.03274,-0.00959 -0.03769,-0.00793c-0.00497,0.00166 0.01471,0.02213 0.04267,0.04592c0.0524,0.04113 0.0524,0.04113 0.03752,0.00794zm0.08697,-0.24367c-0.0033,0 -0.00663,0.00627 -0.00663,0.01254c0,0.00793 0.00332,0.01273 0.00663,0.01273c0.00478,0 0.0081,-0.00479 0.0081,-0.01273c0,-0.00627 -0.00332,-0.01254 -0.0081,-0.01254zm-0.01489,0.12967c0,0.01107 0.02794,0.00313 0.03935,-0.01107c0.01636,-0.0238 0.01471,-0.03006 -0.00663,-0.03006c-0.01471,0 -0.03272,0.02214 -0.03272,0.04113zm0.04763,-0.34161c-0.00497,0.02047 -0.00828,0.03781 -0.00663,0.03948c0.00497,0.00627 0.01803,-0.04113 0.01803,-0.06014c0,-0.00793 -0.00498,0.00167 -0.0114,0.02066zm0.08514,0.31948c-0.00828,0 -0.01471,0.00314 -0.01471,0.00941c0,0.00479 0.00478,0.00794 0.00973,0.00794c0.00663,0 0.01306,-0.00314 0.01473,-0.00794c0.0033,-0.00627 -0.00167,-0.00941 -0.00975,-0.00941zm-0.01968,0.29735c0.00975,0.0286 0.02446,0.05534 0.03274,0.06179c0.00828,0.00479 0.02464,0.02693 0.03439,0.04907c0.00975,0.02213 0.01968,0.03947 0.02134,0.03947c0.00808,0 -0.00828,-0.14553 -0.01968,-0.18981c-0.00993,-0.03799 -0.01306,-0.07286 -0.0114,-0.12819c0.00147,-0.04113 0,-0.07748 -0.0033,-0.08061c-0.00165,-0.00313 -0.01306,-0.00313 -0.02299,0c-0.01803,0.00627 -0.01968,0.01107 -0.01968,0.04593c0,0.02674 -0.00331,0.04113 -0.0114,0.0474c-0.02299,0.0142 -0.02133,0.09481 0,0.15494zm-0.04745,-0.21193c-0.0033,-0.0238 -0.00661,-0.02693 -0.02464,-0.02693c-0.02134,0 -0.02134,0.00166 -0.01968,0.03486c0,0.02048 0.00332,0.04428 0.00497,0.05534c0.00165,0.01107 0.0081,0.02214 0.01471,0.0238c0.01306,0.00794 0.02776,-0.0474 0.02464,-0.08706zm-0.02464,0.15973c-0.01471,-0.019 -0.02464,-0.03947 -0.02611,-0.04427c0,-0.00627 -0.00828,-0.02213 -0.01801,-0.03633c-0.00993,-0.0142 -0.02133,-0.03173 -0.02631,-0.038c-0.01636,-0.02214 -0.01306,-0.00313 0.00497,0.04593c0.0114,0.03321 0.03107,0.06327 0.05406,0.08854c0.04249,0.04279 0.04745,0.03486 0.0114,-0.01587zm-0.02611,0.07766c0.01783,0 0.01636,-0.00166 -0.00828,-0.02693c-0.01636,-0.01586 -0.02776,-0.0332 -0.02776,-0.04113c0,-0.00627 -0.02134,-0.02859 -0.04597,-0.04906c-0.02446,-0.02066 -0.04745,-0.04113 -0.05075,-0.04741c-0.00332,-0.00793 -0.00497,-0.00793 -0.00497,0.00148c0,0.00959 -0.00808,0.01107 -0.03439,0.00627c-0.01801,-0.00314 -0.03272,-0.00314 -0.03272,-0.00147c0,0.00313 0.00661,0.02213 0.01324,0.04113c0.0114,0.03154 0.01636,0.038 0.0524,0.05054c0.02281,0.00793 0.05885,0.02693 0.08184,0.04113c0.02134,0.01439 0.04745,0.02545 0.05738,0.02545zm-0.25562,0.05368c0.00663,0 0.01638,-0.00313 0.02299,-0.00793c0.0114,-0.01106 0.00167,-0.01106 -0.01966,0c-0.00975,0.0048 -0.0114,0.00628 -0.00332,0.00793zm-0.01801,-0.03948c0.01636,-0.00645 0.06878,-0.01273 0.11641,-0.01273c0.08992,-0.00148 0.10795,-0.00627 0.07191,-0.01586c-0.0114,-0.00313 -0.03752,-0.01107 -0.05885,-0.019c-0.0377,-0.0142 -0.11476,-0.00941 -0.12284,0.00645c-0.00167,0.00314 -0.00993,0.0048 -0.01803,0.00314c-0.01636,-0.0048 -0.03274,0.00793 -0.0377,0.0332c-0.00663,0.02047 0.00496,0.02214 0.0491,0.00479zm-0.13094,0.03634c0.0033,0.01273 0.01968,0.0142 0.03274,0.00313c0.00808,-0.00627 0.00808,-0.0094 0,-0.01899c-0.00663,-0.00941 -0.0114,-0.00941 -0.02133,-0.00148c-0.00663,0.00461 -0.0114,0.01254 -0.0114,0.01734zm-0.0524,0.11067c0.00643,0 0.00973,0.00479 0.00643,0.0142c-0.00147,0.00646 -0.00643,0.01273 -0.00975,0.01273c-0.00496,0 -0.00808,-0.00627 -0.00808,-0.01273c0,-0.00775 0.00478,-0.0142 0.0114,-0.0142z" stroke="null" fill="#000000"/>
 </g>

</svg>